<?xml version="1.0" encoding="utf-8"?>
<!-- Generator: Adobe Illustrator 18.0.0, SVG Export Plug-In . SVG Version: 6.00 Build 0)  -->
<!DOCTYPE svg PUBLIC "-//W3C//DTD SVG 1.1//EN" "http://www.w3.org/Graphics/SVG/1.1/DTD/svg11.dtd">
<svg version="1.1" id="Layer_1" xmlns="http://www.w3.org/2000/svg" xmlns:xlink="http://www.w3.org/1999/xlink" x="0px" y="0px"
	 viewBox="0 0 64 64" enable-background="new 0 0 64 64" xml:space="preserve">
<g>
	<g>
		<g>
			<path fill="#231F20" d="M59.1,32H4.9C2.8,32,1,33.7,1,35.8v3.4C1,41.3,2.8,43,4.9,43h54.2c2.2,0,3.9-1.7,3.9-3.8v-3.4
				C63,33.7,61.2,32,59.1,32z"/>
		</g>
	</g>
	<g>
		<g>
			<path fill="#231F20" d="M5.2,51.6c0,2.6,2.1,4.8,4.8,4.8h43.2c2.6,0,4.8-2.1,4.8-4.8V46H5.2V51.6z"/>
		</g>
	</g>
	<g>
		<g>
			<path fill="#231F20" d="M58.2,20.7c0-8.8-7.1-15.9-15.9-15.9H21.4c-8.8,0-15.9,7.1-15.9,15.9V29h52.7V20.7z M17,16.2
				c-1.1,0-2-0.9-2-2c0-1.1,0.9-2,2-2s2,0.9,2,2C19,15.3,18.1,16.2,17,16.2z M22,21.2c-1.1,0-2-0.9-2-2c0-1.1,0.9-2,2-2s2,0.9,2,2
				C24,20.3,23.1,21.2,22,21.2z M27,16.2c-1.1,0-2-0.9-2-2c0-1.1,0.9-2,2-2s2,0.9,2,2C29,15.3,28.1,16.2,27,16.2z M32,21.2
				c-1.1,0-2-0.9-2-2c0-1.1,0.9-2,2-2s2,0.9,2,2C34,20.3,33.1,21.2,32,21.2z M37,16.2c-1.1,0-2-0.9-2-2c0-1.1,0.9-2,2-2s2,0.9,2,2
				C39,15.3,38.1,16.2,37,16.2z M42,21.2c-1.1,0-2-0.9-2-2c0-1.1,0.9-2,2-2s2,0.9,2,2C44,20.3,43.1,21.2,42,21.2z M47,16.2
				c-1.1,0-2-0.9-2-2c0-1.1,0.9-2,2-2s2,0.9,2,2C49,15.3,48.1,16.2,47,16.2z"/>
		</g>
	</g>
</g>
</svg>
